<?xml version="1.0" encoding="utf-8"?>
<!-- Generator: Adobe Illustrator 18.1.0, SVG Export Plug-In . SVG Version: 6.00 Build 0)  -->
<!DOCTYPE svg PUBLIC "-//W3C//DTD SVG 1.1//EN" "http://www.w3.org/Graphics/SVG/1.1/DTD/svg11.dtd">
<svg version="1.1" id="Layer_1" xmlns="http://www.w3.org/2000/svg" xmlns:xlink="http://www.w3.org/1999/xlink" x="0px" y="0px"
	 viewBox="0 0 1920 1080" enable-background="new 0 0 1920 1080" xml:space="preserve">
<g>
	<path fill="#0095D5" d="M462.4,978c15.7,0,29.5-1.4,41.1-4.1V994c-12.1,4.1-25.9,6-41.6,6c-24.2,0-41.8-6.5-53.2-19.3
		c-11.4-12.8-17.2-33.1-17.2-60.6V744.2h-40.3v-21.5h39.9l6.3-66h19.3v66h80v21.5h-80v172.3c0,20.8,3.6,36.2,11.1,46.4
		C435.3,973,446.7,978,462.4,978z"/>
	<path fill="#0095D5" d="M895.6,978c15.7,0,29.5-1.4,41.1-4.1V994c-12.1,4.1-25.9,6-41.6,6c-24.2,0-41.8-6.5-53.2-19.3
		s-17.2-33.1-17.2-60.6V744.2h-40.3v-21.5h40.1l6.3-66h19.3v66h80v21.5h-80v172.3c0,20.8,3.6,36.2,11.1,46.4
		C868.6,973,880.1,978,895.6,978z"/>
	<path fill="#0095D5" d="M1065,404.7h-24.6V132.6h24.9v272.1H1065z M1039.1,58.7c0-7.5,6-13.5,13.5-13.5c7.5,0,13.5,6,13.5,13.5
		s-6,13.5-13.5,13.5C1045.2,72.2,1039.1,66.2,1039.1,58.7z"/>
	<path fill="#0095D5" d="M125.1,248.4v159.5H99.5v-366h87.2c45.4,0,79,8.5,100.8,25.1c21.7,16.7,32.6,42,32.6,75.9
		c0,24.6-6.5,45.2-19.3,62.1c-13,16.9-32.6,29-59,36.2l99.5,166.7h-30.4l-94.5-159.5H125.1L125.1,248.4z M125.1,226.4h69.8
		c30.9,0,54.8-7,71.8-20.8c16.9-13.8,25.6-34.1,25.6-60.9c0-27.8-8.5-48.1-25.1-60.9c-16.7-12.6-44-19.1-81.7-19.1h-60.6v161.6
		H125.1z"/>
	<path fill="#0095D5" d="M497.7,412.9c-39.6,0-70.3-12.1-92.5-36.5C382.9,352,372,318,372,274c0-43.5,10.6-78.3,32.1-104.4
		c21.3-26.1,50.3-39.1,86.5-39.1c32.1,0,57.3,11.1,75.9,33.6c18.6,22.5,27.8,52.7,27.8,91.1v20.1H398.1c0.2,37.4,8.9,66,26.1,85.8
		c17.2,19.8,41.6,29.5,73.4,29.5c15.5,0,29.2-1,40.8-3.1c11.8-2.2,26.6-6.8,44.7-14v22.5c-15.5,6.8-29.5,11.1-42.5,13.5
		C527.6,411.7,513.4,412.9,497.7,412.9z M490.4,152.5c-26.3,0-47.4,8.7-63.1,25.9c-15.9,17.4-25.1,42.3-27.8,74.7H568
		c0-31.7-6.8-56.3-20.5-73.9S514.6,152.5,490.4,152.5z"/>
	<path fill="#0095D5" d="M886.9,408.1l-59.7-182.2c-3.9-12.3-8.7-30.4-14.7-54.4H811l-5.3,18.6l-11.4,36.2l-60.6,181.7h-24.6
		l-77.8-272.3h26.6l43.5,157.8c10.1,39.1,16.9,67.9,20.1,86.3h1.4c9.9-39.1,16.9-65,21.5-77.8l56.1-166h22.5l53.4,165.5
		c12.1,39.1,19.3,65.2,22,77.8h1.4c1.4-10.9,8-39.9,20.1-87.2l41.6-156.3h25.1L913,408.1H886.9z"/>
	<path fill="#0095D5" d="M1263.3,130.5c11.6,0,23.9,1.2,37,3.6l-4.8,23.7c-11.4-2.9-23.2-4.3-35.3-4.3c-23.2,0-42.3,9.9-57,29.5
		c-15,19.8-22.2,44.7-22.2,74.7v150.3h-24.9V135.8h21l2.4,49h1.7c11.1-20.1,23.2-34.1,35.8-42.3
		C1230,134.6,1245.2,130.5,1263.3,130.5z"/>
	<path fill="#0095D5" d="M1445,412.9c-39.6,0-70.3-12.1-92.5-36.5c-22.2-24.4-33.1-58.5-33.1-102.4c0-43.5,10.6-78.3,32.1-104.4
		c21.3-26.1,50.3-39.1,86.5-39.1c32.1,0,57.3,11.1,75.9,33.6c18.6,22.5,27.8,52.7,27.8,91.1v20.1h-196.2c0.2,37.4,9.2,66,26.1,85.8
		c17.2,19.8,41.6,29.5,73.4,29.5c15.5,0,29.2-1,40.8-3.1c11.8-2.2,26.6-6.8,44.7-14v22.5c-15.5,6.8-29.5,11.1-42.5,13.5
		C1475.2,411.7,1460.7,412.9,1445,412.9z M1437.8,152.5c-26.1,0-47.4,8.7-63.1,25.9c-15.9,17.4-25.1,42.3-27.8,74.7h168.4
		c0-31.7-6.8-56.3-20.5-73.9C1481,161.4,1462.2,152.5,1437.8,152.5z"/>
	<path fill="#0095D5" d="M1706.2,130.5c19.6,0,36.7,3.6,51,10.9c14.3,7.2,27.3,19.6,38.7,36.7h1.4c-1-21-1.4-41.6-1.4-61.9V18.4
		h24.6v389.7h-16.2l-6.3-41.6h-2.2c-20.8,31.2-50.5,46.6-89.2,46.6c-37.7,0-66.2-11.6-86.3-35c-19.8-23.4-29.7-57.5-29.7-102.2
		c0-47.1,9.9-83.1,29.5-108C1640,143,1668.5,130.5,1706.2,130.5z M1706.2,152.9c-29.7,0-52.2,10.4-66.9,31.4
		c-15,20.8-22.5,51.2-22.5,90.8c0,77.1,30,115.7,89.9,115.7c30.7,0,53.2-8.9,67.7-26.8c14.3-17.9,21.5-47.4,21.5-88.4v-4.3
		c0-42-7-72.2-21.3-90.8C1760.6,162.4,1737.6,152.9,1706.2,152.9z"/>
	<path fill="#0095D5" d="M329.8,900.7c0,30.4-11.4,54.8-33.6,72.7c-22.5,17.9-52.2,26.8-89.6,26.8c-44.7,0-79-4.8-102.9-14.7v-25.6
		c26.3,11.1,59.9,16.7,101,16.7c30,0,53.9-7,71.5-20.8c17.6-13.8,26.3-31.9,26.3-54.1c0-13.8-2.9-25.4-8.7-34.6
		c-5.8-9.2-15.5-17.4-28.5-24.9c-13.3-7.5-32.6-15.7-58.2-24.4c-37.4-12.8-63.3-26.8-77.6-41.8S108,741.3,108,716.4
		c0-27.3,10.6-49.8,32.1-66.9c21.5-17.4,49-25.9,82.9-25.9c34.3,0,66.7,6.5,96.9,19.6l-9.2,22c-30.4-12.6-59.4-19.1-87.2-19.1
		c-27.1,0-48.6,6.3-64.5,18.8s-24.2,29.5-24.2,51c0,13.5,2.4,24.6,7.5,33.3c4.8,8.7,13,16.4,24.2,23.4c11.1,7,30.4,15.2,57.5,24.9
		c28.5,9.9,50,19.3,64.3,28.8c14.3,9.2,24.9,19.8,31.4,31.7C326.4,869.8,329.8,884.1,329.8,900.7z"/>
	<path fill="#0095D5" d="M727.7,995l-6.3-43h-1.9c-13.8,17.6-27.8,30-42.3,37.2c-14.5,7.2-31.4,10.9-51.2,10.9
		c-26.8,0-47.6-6.8-62.3-20.5c-14.7-13.8-22.2-32.6-22.2-56.8c0-26.6,11.1-47.1,33.1-61.9c22.2-14.7,54.1-22.5,96.2-23.2l51.9-1.4
		v-18.1c0-25.9-5.3-45.4-15.7-58.7c-10.6-13.3-27.5-19.8-50.7-19.8c-25.1,0-51.2,7-78.3,21l-9.2-21.5c30-14,59.4-21,88.7-21
		c30,0,52.2,7.7,66.9,23.2c14.7,15.5,22.2,39.6,22.2,72.7v181L727.7,995L727.7,995z M627.4,977.6c29,0,51.9-8.2,68.9-24.9
		c16.7-16.7,25.1-39.6,25.1-69.3v-26.8l-47.6,1.9c-38.2,1.9-65.5,7.7-81.7,17.9s-24.4,25.9-24.4,47.1c0,16.9,5.3,30.2,15.7,39.6
		C593.6,972.7,608.3,977.6,627.4,977.6z"/>
	<path fill="#0095D5" d="M1105.6,1000c-39.6,0-70.3-12.1-92.5-36.5c-22.2-24.4-33.1-58.5-33.1-102.4c0-43.5,10.6-78.3,32.1-104.4
		c21.3-26.1,50.3-39.1,86.5-39.1c32.1,0,57.3,11.1,75.9,33.6c18.6,22.5,27.8,52.7,27.8,91.1v20.1H1006c0.2,37.4,9.2,66,26.1,85.8
		c17.2,19.8,41.6,29.5,73.4,29.5c15.5,0,29.2-1,40.8-3.1c11.8-2.2,26.6-6.8,44.7-14v22.5c-15.5,6.8-29.5,11.4-42.5,13.5
		C1135.5,998.8,1121.3,1000,1105.6,1000z M1098.3,739.6c-26.1,0-47.4,8.7-63.1,25.9c-15.9,17.4-25.1,42.3-27.8,74.7h168.4
		c0-31.7-6.8-56.3-20.5-73.9C1141.6,748.5,1122.5,739.6,1098.3,739.6z"/>
	<path fill="#0095D5" d="M1443.3,1061.6h-212.9v-20.5h212.9V1061.6L1443.3,1061.6z"/>
</g>
</svg>
